<svg width="10" height="8" viewBox="0 0 10 8" fill="none" xmlns="http://www.w3.org/2000/svg">
<path d="M4.58829 7.28507C4.63416 7.3517 4.69555 7.40617 4.76715 7.44381C4.83875 7.48144 4.91843 7.5011 4.99932 7.5011C5.08021 7.5011 5.15989 7.48144 5.2315 7.44381C5.3031 7.40617 5.36448 7.3517 5.41035 7.28507L9.91071 0.784562C9.9628 0.709584 9.99335 0.621765 9.99903 0.530645C10.0047 0.439525 9.98532 0.348589 9.94295 0.267718C9.90058 0.186847 9.83686 0.119134 9.75871 0.0719348C9.68056 0.024736 9.59097 -0.000143183 9.49967 6.19875e-07H0.49897C0.407884 0.000376854 0.318625 0.0255759 0.24079 0.0728878C0.162955 0.1202 0.0994899 0.187834 0.0572196 0.268518C0.0149493 0.349202 -0.00452694 0.439883 0.000885468 0.530808C0.00629787 0.621733 0.0363941 0.709462 0.0879376 0.784562L4.58829 7.28507Z" fill="#454D50"/>
</svg>
