<svg xmlns="http://www.w3.org/2000/svg" viewBox="0 0 500 150"><defs><style>.a{fill:#2b8ec7;}.b{fill:#f6b24d;}</style></defs><path class="a" d="M113.85,111.48h19.21v26.69a12.55,12.55,0,0,1-1.82.13c-3.63,0-5.34-1.37-7.51-3.11s-5-4-9.88-4.36Z"/><path class="a" d="M150,18.81V55.74L125.2,40.17a3,3,0,0,0-3.16.08L71.74,72a2.81,2.81,0,0,0-1.29,2.33v57.08a17.79,17.79,0,0,0-6.69,3.81c-2.18,1.74-3.88,3.11-7.52,3.11s-5.33-1.37-7.51-3.11c-2.44-2-5.5-4.41-11.23-4.41s-8.79,2.44-11.24,4.41c-2.17,1.74-3.88,3.11-7.51,3.11s-5.34-1.37-7.51-3.11c-2.45-2-5.5-4.41-11.24-4.41v-112C0,8.43,8.72,0,19.47,0H130.53C141.28,0,150,8.43,150,18.81Z"/><path class="a" d="M123.79,45.93,150,62.33v68.45c-5.63,0-8.68,2.35-11.1,4.29V108.66a2.87,2.87,0,0,0-2.92-2.82h-25a2.87,2.87,0,0,0-2.92,2.82v22.7a18,18,0,0,0-6.76,3.83c-2.17,1.74-3.88,3.11-7.51,3.11s-5.34-1.37-7.51-3.11-5-4-9.94-4.37v-55Z"/><circle class="b" cx="35" cy="35" r="25"/><path class="a" d="M150,136.84v5.64h-.35c-3.4.08-5.06,1.42-7.16,3.1-2.46,2-5.5,4.41-11.25,4.41s-8.78-2.44-11.23-4.41c-2.17-1.74-3.88-3.11-7.51-3.11s-5.35,1.37-7.52,3.11c-2.45,2-5.49,4.41-11.23,4.41s-8.79-2.44-11.24-4.41c-2.17-1.74-3.88-3.11-7.51-3.11s-5.34,1.37-7.52,3.11C65,147.56,62,150,56.25,150s-8.79-2.44-11.23-4.41c-2.18-1.74-3.88-3.11-7.52-3.11s-5.33,1.37-7.51,3.11c-2.44,2-5.49,4.41-11.23,4.41S10,147.56,7.52,145.59c-2.1-1.68-3.76-3-7.15-3.1H0v-5.64H0c5.74,0,8.79,2.44,11.24,4.41,2.17,1.74,3.88,3.11,7.51,3.11s5.34-1.37,7.51-3.11c2.45-2,5.5-4.41,11.23-4.41s8.8,2.44,11.23,4.41c2.19,1.74,3.89,3.11,7.52,3.11s5.34-1.37,7.52-3.11c2.44-2,5.49-4.41,11.23-4.41s8.78,2.44,11.23,4.41c2.18,1.74,3.88,3.11,7.52,3.11s5.34-1.37,7.51-3.11c2.45-2,5.5-4.41,11.24-4.41s8.78,2.44,11.24,4.41c2.16,1.74,3.87,3.11,7.5,3.11s5.35-1.37,7.53-3.11c2.44-2,5.5-4.41,11.22-4.41Z"/><path class="a" d="M202.84,27.18h12.77c10.11,0,15.16,4.36,15.16,10.66,0,3.67-2,6.25-5.62,7.8,5,1.49,8,4.53,8,9.23,0,6.94-6.19,12-15.92,12H202.84Zm13.08,15.54c3.48,0,5.5-1.21,5.5-4.25,0-2.63-1.64-4.18-5.81-4.18h-3.73v8.43Zm1,17.08c4.55,0,6.76-2.12,6.76-5.21,0-2.53-1.07-5.16-6.88-5.16h-4.87V59.8Z"/><path class="a" d="M237.09,52.29c0-8.2,6.76-15.36,16.8-15.36s16.81,7.16,16.81,15.36-6.57,15.37-16.81,15.37S237.09,60.49,237.09,52.29Zm24.51,0c0-5.27-3.79-8.48-7.71-8.48s-7.7,3.21-7.7,8.48,3.66,8.49,7.7,8.49S261.6,57.51,261.6,52.29Z"/><path class="a" d="M298.06,64.33a12.63,12.63,0,0,1-8.9,3.33c-9.17,0-15-7.4-15-15.31s5.56-15.42,15-15.42a12.76,12.76,0,0,1,8.53,3V25.17h8.78V66.91h-7.84Zm.26-12c0-5.45-3.79-8.54-8-8.54-5,0-7.08,4.41-7.08,8.54,0,4.36,2.27,8.43,7.08,8.43C295,60.78,298.32,57.34,298.32,52.35Z"/><path class="a" d="M313.1,38.25l7.58-.58.82,3.56c2-2.7,5.12-4.3,9.61-4.3v6.88c-6.26,0-9.23,4.07-9.23,10.78V66.91H313.1Z"/><path class="a" d="M334.13,37.67h8.79V55.56c0,2.87.94,5.22,3.73,5.22,4.67,0,7.14-3.78,7.14-9.81V37.67h8.78V66.91H355l-.7-3.09c-2.34,2.69-5.62,3.84-9.6,3.84-6.45,0-10.56-4.24-10.56-11.24Z"/><path class="a" d="M369.2,38.25l7.58-.58.57,2.64a10.55,10.55,0,0,1,8.21-3.38c3.92,0,7,1.6,8.79,4.47a11.2,11.2,0,0,1,9.35-4.47c6.44,0,10.55,4.24,10.55,11.23V66.91h-8.78V49c0-2.86-1-5.21-3.73-5.21-3.29,0-5.62,3.27-5.62,9.57V66.91h-8.79V49c0-2.86-.95-5.21-3.73-5.21-3.22,0-5.62,3.15-5.62,9.11v14H369.2Z"/><path class="a" d="M422.42,25l7.65,1.2-5.31,15.26-5.24-.75Z"/><path class="a" d="M454.16,64.33a12.63,12.63,0,0,1-8.91,3.33c-9.16,0-15-7.4-15-15.31s5.56-15.42,15-15.42a12.73,12.73,0,0,1,8.53,3V25.17h8.79V66.91h-7.84Zm.26-12c0-5.45-3.8-8.54-8-8.54-5,0-7.07,4.41-7.07,8.54,0,4.36,2.27,8.43,7.07,8.43C451.07,60.78,454.42,57.34,454.42,52.35Z"/><path class="a" d="M491.6,64.28a12.48,12.48,0,0,1-8.91,3.38c-9.42,0-15-7.63-15-15.42s5.81-15.31,15-15.31a12.74,12.74,0,0,1,8.53,3v-2.3l8.78.58V66.91h-7.84Zm.25-12c0-5-3.35-8.43-8-8.43-4.8,0-7.08,4.07-7.08,8.43,0,4.12,2.09,8.54,7.08,8.54C488.06,60.78,491.85,57.68,491.85,52.24Z"/><path class="a" d="M200,84.52h9.35l8,23.11c.38,1.09,1.33,4.81,2.28,8.48.95-3.67,2-7.39,2.34-8.48l8-23.11h9.35L225,124.25h-10.8Z"/><path class="a" d="M247.83,82c2.6,0,5.19,1.83,5.19,4.47s-2.4,4.59-5.19,4.59a4.74,4.74,0,0,1-5.05-4.59C242.78,83.83,245.18,82,247.83,82Zm-4.36,13h8.79v29.24h-8.79Z"/><path class="a" d="M258.73,83.14l8.79-1.37V115.6c0,1.77.63,2.46,2.4,2.46l-.7,6.88c-6.44,0-10.49-2-10.49-8.54Z"/><path class="a" d="M274.41,83.14l8.79-1.37V115.6c0,1.77.63,2.46,2.4,2.46l-.7,6.88c-6.44,0-10.49-2-10.49-8.54Z"/><path class="a" d="M312.33,121.62a12.45,12.45,0,0,1-8.91,3.38c-9.41,0-15-7.63-15-15.42s5.81-15.31,15-15.31a12.73,12.73,0,0,1,8.53,3V95l8.79.58v28.66H312.9Zm.26-12c0-5-3.35-8.43-8-8.43-4.8,0-7.07,4.07-7.07,8.43,0,4.12,2.08,8.54,7.07,8.54C308.79,118.12,312.59,115,312.59,109.58Z"/><path class="a" d="M327.37,95.59,335,95l.57,2.64a10.55,10.55,0,0,1,8.21-3.38c3.92,0,7,1.6,8.79,4.47a11.2,11.2,0,0,1,9.35-4.47c6.44,0,10.55,4.24,10.55,11.24v18.74h-8.78V106.37c0-2.87-.95-5.22-3.73-5.22-3.29,0-5.62,3.27-5.62,9.57v13.53H345.5V106.37c0-2.87-.95-5.22-3.73-5.22-3.22,0-5.62,3.15-5.62,9.11v14h-8.78Z"/></svg>